<?xml version="1.0" encoding="UTF-8"?>
<svg width="40px" height="40px" viewBox="0 0 40 40" version="1.1" xmlns="http://www.w3.org/2000/svg" xmlns:xlink="http://www.w3.org/1999/xlink">
    <!-- Generator: Sketch 60.1 (88133) - https://sketch.com -->
    <title>Icon Add Photo</title>
    <desc>Created with Sketch.</desc>
    <g id="Page-1" stroke="none" stroke-width="1" fill="none" fill-rule="evenodd">
        <g id="Sharing-Without-Gift-Custom" transform="translate(-30.000000, -338.000000)">
            <g id="Card" transform="translate(0.000000, 110.000000)">
                <g id="Add-Photo" transform="translate(30.000000, 228.000000)">
                    <g id="Icon-Add-Photo">
                        <circle id="Mask" fill="#B0BBC5" cx="20" cy="20" r="20"></circle>
                        <g id="Group-4" transform="translate(9.180053, 10.627048)">
                            <path d="M19.1897214,3.39099067 L15.6942445,3.39099067 L14.0918931,0.431005706 C13.9475371,0.164978261 13.6691363,1.42108547e-14 13.3673636,1.42108547e-14 L8.0124442,1.42108547e-14 C7.71067146,1.42108547e-14 7.43227065,0.164978261 7.28791467,0.431005706 L5.68556331,3.39099067 L2.19008641,3.39099067 C0.980245833,3.39099067 0,4.37192391 0,5.58176449 L0,16.0730071 C0,17.283535 0.981620652,18.2651557 2.19283605,18.2651557 L19.1897214,18.2651557 C20.3995619,18.2651557 21.3798078,17.2842225 21.3798078,16.0743819 L21.3798078,5.58176449 C21.3798078,4.37192391 20.3995619,3.39099067 19.1897214,3.39099067" id="Fill-1" fill="#FFFFFF"></path>
                            <rect id="Rectangle" fill="#B0BBC5" x="17.3199473" y="5.92560668" width="2" height="1.5"></rect>
                            <path d="M10.6899039,15.1174879 C8.32852617,15.1174879 6.41394233,13.2029041 6.41394233,10.8415264 C6.41394233,8.47957216 8.32852617,6.56556483 10.6899039,6.56556483 C13.0512816,6.56556483 14.9658654,8.47957216 14.9658654,10.8415264 C14.9658654,13.2029041 13.0512816,15.1174879 10.6899039,15.1174879" id="Path" stroke="#B0BBC5" stroke-width="1.5" fill="#FFFFFF"></path>
                        </g>
                    </g>
                </g>
            </g>
        </g>
    </g>
</svg>